<?xml version="1.0" encoding="UTF-8"?>
<svg xmlns="http://www.w3.org/2000/svg" xmlns:xlink="http://www.w3.org/1999/xlink" width="512px" height="512px" viewBox="0 0 512 512" version="1.1">
<defs>
<clipPath id="clip1">
  <path d="M 96 0 L 416 0 C 469.019531 0 512 42.980469 512 96 L 512 416 C 512 469.019531 469.019531 512 416 512 L 96 512 C 42.980469 512 0 469.019531 0 416 L 0 96 C 0 42.980469 42.980469 0 96 0 Z M 96 0 "/>
</clipPath>
<clipPath id="clip2">
  <path d="M 10 10 L 502 10 L 502 502 L 10 502 Z M 10 10 "/>
</clipPath>
<clipPath id="clip3">
  <path d="M 96 0 L 416 0 C 469.019531 0 512 42.980469 512 96 L 512 416 C 512 469.019531 469.019531 512 416 512 L 96 512 C 42.980469 512 0 469.019531 0 416 L 0 96 C 0 42.980469 42.980469 0 96 0 Z M 96 0 "/>
</clipPath>
<clipPath id="clip4">
  <path d="M 96 0 L 416 0 C 469.019531 0 512 42.980469 512 96 L 512 416 C 512 469.019531 469.019531 512 416 512 L 96 512 C 42.980469 512 0 469.019531 0 416 L 0 96 C 0 42.980469 42.980469 0 96 0 Z M 96 0 "/>
</clipPath>
<clipPath id="clip5">
  <path d="M 81 315 L 196 315 L 196 440 L 81 440 Z M 81 315 "/>
</clipPath>
<clipPath id="clip6">
  <path d="M 96 0 L 416 0 C 469.019531 0 512 42.980469 512 96 L 512 416 C 512 469.019531 469.019531 512 416 512 L 96 512 C 42.980469 512 0 469.019531 0 416 L 0 96 C 0 42.980469 42.980469 0 96 0 Z M 96 0 "/>
</clipPath>
<clipPath id="clip7">
  <path d="M 250 5 L 262 5 L 262 507 L 250 507 Z M 250 5 "/>
</clipPath>
<clipPath id="clip8">
  <path d="M 96 0 L 416 0 C 469.019531 0 512 42.980469 512 96 L 512 416 C 512 469.019531 469.019531 512 416 512 L 96 512 C 42.980469 512 0 469.019531 0 416 L 0 96 C 0 42.980469 42.980469 0 96 0 Z M 96 0 "/>
</clipPath>
<clipPath id="clip9">
  <path d="M 5 250 L 507 250 L 507 262 L 5 262 Z M 5 250 "/>
</clipPath>
<clipPath id="clip10">
  <path d="M 96 0 L 416 0 C 469.019531 0 512 42.980469 512 96 L 512 416 C 512 469.019531 469.019531 512 416 512 L 96 512 C 42.980469 512 0 469.019531 0 416 L 0 96 C 0 42.980469 42.980469 0 96 0 Z M 96 0 "/>
</clipPath>
<clipPath id="clip11">
  <path d="M 100 83 L 185 83 L 185 203 L 100 203 Z M 100 83 "/>
</clipPath>
<clipPath id="clip12">
  <path d="M 96 0 L 416 0 C 469.019531 0 512 42.980469 512 96 L 512 416 C 512 469.019531 469.019531 512 416 512 L 96 512 C 42.980469 512 0 469.019531 0 416 L 0 96 C 0 42.980469 42.980469 0 96 0 Z M 96 0 "/>
</clipPath>
<clipPath id="clip13">
  <path d="M 305 81 L 436 81 L 436 205 L 305 205 Z M 305 81 "/>
</clipPath>
<clipPath id="clip14">
  <path d="M 96 0 L 416 0 C 469.019531 0 512 42.980469 512 96 L 512 416 C 512 469.019531 469.019531 512 416 512 L 96 512 C 42.980469 512 0 469.019531 0 416 L 0 96 C 0 42.980469 42.980469 0 96 0 Z M 96 0 "/>
</clipPath>
<clipPath id="clip15">
  <path d="M 310 315 L 424 315 L 424 438 L 310 438 Z M 310 315 "/>
</clipPath>
<clipPath id="clip16">
  <path d="M 96 0 L 416 0 C 469.019531 0 512 42.980469 512 96 L 512 416 C 512 469.019531 469.019531 512 416 512 L 96 512 C 42.980469 512 0 469.019531 0 416 L 0 96 C 0 42.980469 42.980469 0 96 0 Z M 96 0 "/>
</clipPath>
</defs>
<g id="surface1">
<g clip-path="url(#clip1)" clip-rule="nonzero">
<path style=" stroke:none;fill-rule:nonzero;fill:rgb(96.470588%,87.45098%,64.313725%);fill-opacity:1;" d="M 96 0 L 416 0 C 469.019531 0 512 42.980469 512 96 L 512 416 C 512 469.019531 469.019531 512 416 512 L 96 512 C 42.980469 512 0 469.019531 0 416 L 0 96 C 0 42.980469 42.980469 0 96 0 Z M 96 0 "/>
</g>
<g clip-path="url(#clip2)" clip-rule="nonzero">
<g clip-path="url(#clip3)" clip-rule="nonzero">
<path style=" stroke:none;fill-rule:nonzero;fill:rgb(96.470588%,87.45098%,64.313725%);fill-opacity:1;" d="M 96 10.667969 L 416 10.667969 C 463.128906 10.667969 501.332031 48.871094 501.332031 96 L 501.332031 416 C 501.332031 463.128906 463.128906 501.332031 416 501.332031 L 96 501.332031 C 48.871094 501.332031 10.667969 463.128906 10.667969 416 L 10.667969 96 C 10.667969 48.871094 48.871094 10.667969 96 10.667969 Z M 96 10.667969 "/>
</g>
</g>
<g clip-path="url(#clip4)" clip-rule="nonzero">
<path style="fill:none;stroke-width:2;stroke-linecap:butt;stroke-linejoin:miter;stroke:rgb(92.54902%,37.647059%,26.27451%);stroke-opacity:1;stroke-miterlimit:4;" d="M 9 1.000122 L 39 1.000122 C 43.418335 1.000122 46.999878 4.581665 46.999878 9 L 46.999878 39 C 46.999878 43.418335 43.418335 46.999878 39 46.999878 L 9 46.999878 C 4.581665 46.999878 1.000122 43.418335 1.000122 39 L 1.000122 9 C 1.000122 4.581665 4.581665 1.000122 9 1.000122 Z M 9 1.000122 " transform="matrix(10.666667,0,0,10.666667,0,0)"/>
</g>
<g clip-path="url(#clip5)" clip-rule="nonzero">
<g clip-path="url(#clip6)" clip-rule="nonzero">
<path style=" stroke:none;fill-rule:nonzero;fill:rgb(39.607843%,36.078431%,26.666667%);fill-opacity:1;" d="M 146.003906 439.382812 C 133.832031 439.382812 122.792969 436.765625 112.894531 431.53125 C 103.109375 426.183594 95.375 418.84375 89.683594 409.515625 C 84.109375 400.070312 81.324219 389.433594 81.324219 377.601562 C 81.324219 365.765625 84.109375 355.1875 89.683594 345.855469 C 95.375 336.414062 103.109375 329.074219 112.894531 323.839844 C 122.792969 318.492188 133.886719 315.820312 146.175781 315.820312 C 156.53125 315.820312 165.859375 317.640625 174.164062 321.28125 C 182.585938 324.921875 189.640625 330.15625 195.328125 336.980469 L 177.578125 353.367188 C 169.5 344.035156 159.488281 339.371094 147.542969 339.371094 C 140.144531 339.371094 133.546875 341.019531 127.742188 344.320312 C 121.941406 347.507812 117.390625 352 114.089844 357.800781 C 110.90625 363.605469 109.3125 370.203125 109.3125 377.601562 C 109.3125 384.996094 110.90625 391.59375 114.089844 397.398438 C 117.390625 403.199219 121.941406 407.75 127.742188 411.050781 C 133.546875 414.238281 140.144531 415.828125 147.542969 415.828125 C 159.488281 415.828125 169.5 411.105469 177.578125 401.664062 L 195.328125 418.046875 C 189.640625 424.988281 182.585938 430.28125 174.164062 433.921875 C 165.746094 437.558594 156.359375 439.382812 146.003906 439.382812 Z M 146.003906 439.382812 "/>
</g>
</g>
<g clip-path="url(#clip7)" clip-rule="nonzero">
<g clip-path="url(#clip8)" clip-rule="nonzero">
<path style="fill:none;stroke-width:1;stroke-linecap:butt;stroke-linejoin:miter;stroke:rgb(92.54902%,37.647059%,26.27451%);stroke-opacity:1;stroke-miterlimit:4;" d="M 24 1.000122 L 24 46.999878 " transform="matrix(10.666667,0,0,10.666667,0,0)"/>
</g>
</g>
<g clip-path="url(#clip9)" clip-rule="nonzero">
<g clip-path="url(#clip10)" clip-rule="nonzero">
<path style="fill:none;stroke-width:1;stroke-linecap:butt;stroke-linejoin:miter;stroke:rgb(92.54902%,37.647059%,26.27451%);stroke-opacity:1;stroke-miterlimit:4;" d="M 1.000122 24 L 46.999878 24 " transform="matrix(10.666667,0,0,10.666667,0,0)"/>
</g>
</g>
<g clip-path="url(#clip11)" clip-rule="nonzero">
<g clip-path="url(#clip12)" clip-rule="nonzero">
<path style=" stroke:none;fill-rule:nonzero;fill:rgb(92.54902%,37.647059%,26.27451%);fill-opacity:1;" d="M 184.320312 105.726562 L 127.488281 105.726562 L 127.660156 202.667969 L 100.179688 202.667969 L 100.179688 83.199219 L 184.492188 83.199219 Z M 184.320312 105.726562 "/>
</g>
</g>
<g clip-path="url(#clip13)" clip-rule="nonzero">
<g clip-path="url(#clip14)" clip-rule="nonzero">
<path style=" stroke:none;fill-rule:nonzero;fill:rgb(26.27451%,47.843137%,20.784314%);fill-opacity:1;" d="M 370.515625 204.714844 C 358.113281 204.714844 346.910156 202.039062 336.894531 196.691406 C 326.996094 191.347656 319.203125 184.007812 313.515625 174.675781 C 307.9375 165.234375 305.152344 154.652344 305.152344 142.933594 C 305.152344 131.214844 307.9375 120.691406 313.515625 111.359375 C 319.203125 101.917969 326.996094 94.519531 336.894531 89.171875 C 346.910156 83.824219 358.113281 81.152344 370.515625 81.152344 C 382.917969 81.152344 394.070312 83.824219 403.96875 89.171875 C 413.867188 94.519531 421.660156 101.917969 427.347656 111.359375 C 433.039062 120.691406 435.882812 131.214844 435.882812 142.933594 C 435.882812 154.652344 433.039062 165.234375 427.347656 174.675781 C 421.660156 184.007812 413.867188 191.347656 403.96875 196.691406 C 394.070312 202.039062 382.917969 204.714844 370.515625 204.714844 Z M 370.515625 181.164062 C 377.570312 181.164062 383.945312 179.570312 389.632812 176.382812 C 395.320312 173.085938 399.757812 168.535156 402.945312 162.730469 C 406.242188 156.929688 407.894531 150.328125 407.894531 142.933594 C 407.894531 135.539062 406.242188 128.9375 402.945312 123.136719 C 399.757812 117.332031 395.320312 112.839844 389.632812 109.652344 C 383.945312 106.355469 377.570312 104.703125 370.515625 104.703125 C 363.464844 104.703125 357.089844 106.355469 351.402344 109.652344 C 345.714844 112.839844 341.21875 117.332031 337.921875 123.136719 C 334.734375 128.9375 333.140625 135.539062 333.140625 142.933594 C 333.140625 150.328125 334.734375 156.929688 337.921875 162.730469 C 341.21875 168.535156 345.714844 173.085938 351.402344 176.382812 C 357.089844 179.570312 363.464844 181.164062 370.515625 181.164062 Z M 370.515625 181.164062 "/>
</g>
</g>
<g clip-path="url(#clip15)" clip-rule="nonzero">
<g clip-path="url(#clip16)" clip-rule="nonzero">
<path style=" stroke:none;fill-rule:nonzero;fill:rgb(87.45098%,43.921569%,0.784314%);fill-opacity:1;" d="M 413.953125 351.316406 C 403.710938 345.402344 392.734375 341.589844 381.011719 339.882812 L 381.011719 437.332031 L 353.367188 437.332031 L 353.367188 339.882812 C 341.644531 341.589844 330.609375 345.402344 320.257812 351.316406 L 310.871094 330.667969 C 319.0625 325.773438 327.9375 322.078125 337.492188 319.574219 C 347.050781 317.070312 356.894531 315.820312 367.019531 315.820312 C 377.257812 315.820312 387.15625 317.070312 396.714844 319.574219 C 406.386719 322.078125 415.261719 325.773438 423.339844 330.667969 Z M 413.953125 351.316406 "/>
</g>
</g>
</g>
</svg>
