<?xml version="1.0" encoding="UTF-8"?>
<svg xmlns="http://www.w3.org/2000/svg" xmlns:xlink="http://www.w3.org/1999/xlink" width="192px" height="192px" viewBox="0 0 192 192" version="1.1">
<defs>
<clipPath id="clip1">
  <path d="M 36 0 L 156 0 C 175.882812 0 192 16.117188 192 36 L 192 156 C 192 175.882812 175.882812 192 156 192 L 36 192 C 16.117188 192 0 175.882812 0 156 L 0 36 C 0 16.117188 16.117188 0 36 0 Z M 36 0 "/>
</clipPath>
<clipPath id="clip2">
  <path d="M 4 4 L 188 4 L 188 188 L 4 188 Z M 4 4 "/>
</clipPath>
<clipPath id="clip3">
  <path d="M 36 0 L 156 0 C 175.882812 0 192 16.117188 192 36 L 192 156 C 192 175.882812 175.882812 192 156 192 L 36 192 C 16.117188 192 0 175.882812 0 156 L 0 36 C 0 16.117188 16.117188 0 36 0 Z M 36 0 "/>
</clipPath>
<clipPath id="clip4">
  <path d="M 36 0 L 156 0 C 175.882812 0 192 16.117188 192 36 L 192 156 C 192 175.882812 175.882812 192 156 192 L 36 192 C 16.117188 192 0 175.882812 0 156 L 0 36 C 0 16.117188 16.117188 0 36 0 Z M 36 0 "/>
</clipPath>
<clipPath id="clip5">
  <path d="M 30 118 L 74 118 L 74 165 L 30 165 Z M 30 118 "/>
</clipPath>
<clipPath id="clip6">
  <path d="M 36 0 L 156 0 C 175.882812 0 192 16.117188 192 36 L 192 156 C 192 175.882812 175.882812 192 156 192 L 36 192 C 16.117188 192 0 175.882812 0 156 L 0 36 C 0 16.117188 16.117188 0 36 0 Z M 36 0 "/>
</clipPath>
<clipPath id="clip7">
  <path d="M 94 2 L 98 2 L 98 190 L 94 190 Z M 94 2 "/>
</clipPath>
<clipPath id="clip8">
  <path d="M 36 0 L 156 0 C 175.882812 0 192 16.117188 192 36 L 192 156 C 192 175.882812 175.882812 192 156 192 L 36 192 C 16.117188 192 0 175.882812 0 156 L 0 36 C 0 16.117188 16.117188 0 36 0 Z M 36 0 "/>
</clipPath>
<clipPath id="clip9">
  <path d="M 2 94 L 190 94 L 190 98 L 2 98 Z M 2 94 "/>
</clipPath>
<clipPath id="clip10">
  <path d="M 36 0 L 156 0 C 175.882812 0 192 16.117188 192 36 L 192 156 C 192 175.882812 175.882812 192 156 192 L 36 192 C 16.117188 192 0 175.882812 0 156 L 0 36 C 0 16.117188 16.117188 0 36 0 Z M 36 0 "/>
</clipPath>
<clipPath id="clip11">
  <path d="M 37 31 L 70 31 L 70 76 L 37 76 Z M 37 31 "/>
</clipPath>
<clipPath id="clip12">
  <path d="M 36 0 L 156 0 C 175.882812 0 192 16.117188 192 36 L 192 156 C 192 175.882812 175.882812 192 156 192 L 36 192 C 16.117188 192 0 175.882812 0 156 L 0 36 C 0 16.117188 16.117188 0 36 0 Z M 36 0 "/>
</clipPath>
<clipPath id="clip13">
  <path d="M 114 30 L 164 30 L 164 77 L 114 77 Z M 114 30 "/>
</clipPath>
<clipPath id="clip14">
  <path d="M 36 0 L 156 0 C 175.882812 0 192 16.117188 192 36 L 192 156 C 192 175.882812 175.882812 192 156 192 L 36 192 C 16.117188 192 0 175.882812 0 156 L 0 36 C 0 16.117188 16.117188 0 36 0 Z M 36 0 "/>
</clipPath>
<clipPath id="clip15">
  <path d="M 116 118 L 159 118 L 159 164 L 116 164 Z M 116 118 "/>
</clipPath>
<clipPath id="clip16">
  <path d="M 36 0 L 156 0 C 175.882812 0 192 16.117188 192 36 L 192 156 C 192 175.882812 175.882812 192 156 192 L 36 192 C 16.117188 192 0 175.882812 0 156 L 0 36 C 0 16.117188 16.117188 0 36 0 Z M 36 0 "/>
</clipPath>
</defs>
<g id="surface1">
<g clip-path="url(#clip1)" clip-rule="nonzero">
<path style=" stroke:none;fill-rule:nonzero;fill:rgb(96.470588%,87.45098%,64.313725%);fill-opacity:1;" d="M 36 0 L 156 0 C 175.882812 0 192 16.117188 192 36 L 192 156 C 192 175.882812 175.882812 192 156 192 L 36 192 C 16.117188 192 0 175.882812 0 156 L 0 36 C 0 16.117188 16.117188 0 36 0 Z M 36 0 "/>
</g>
<g clip-path="url(#clip2)" clip-rule="nonzero">
<g clip-path="url(#clip3)" clip-rule="nonzero">
<path style=" stroke:none;fill-rule:nonzero;fill:rgb(96.470588%,87.45098%,64.313725%);fill-opacity:1;" d="M 36 4 L 156 4 C 173.671875 4 188 18.328125 188 36 L 188 156 C 188 173.671875 173.671875 188 156 188 L 36 188 C 18.328125 188 4 173.671875 4 156 L 4 36 C 4 18.328125 18.328125 4 36 4 Z M 36 4 "/>
</g>
</g>
<g clip-path="url(#clip4)" clip-rule="nonzero">
<path style="fill:none;stroke-width:2;stroke-linecap:butt;stroke-linejoin:miter;stroke:rgb(92.54902%,37.647059%,26.27451%);stroke-opacity:1;stroke-miterlimit:4;" d="M 9 1 L 39 1 C 43.417969 1 47 4.582031 47 9 L 47 39 C 47 43.417969 43.417969 47 39 47 L 9 47 C 4.582031 47 1 43.417969 1 39 L 1 9 C 1 4.582031 4.582031 1 9 1 Z M 9 1 " transform="matrix(4,0,0,4,0,0)"/>
</g>
<g clip-path="url(#clip5)" clip-rule="nonzero">
<g clip-path="url(#clip6)" clip-rule="nonzero">
<path style=" stroke:none;fill-rule:nonzero;fill:rgb(39.607843%,36.078431%,26.666667%);fill-opacity:1;" d="M 54.753906 164.769531 C 50.1875 164.769531 46.046875 163.785156 42.335938 161.824219 C 38.667969 159.820312 35.765625 157.066406 33.632812 153.566406 C 31.542969 150.027344 30.496094 146.039062 30.496094 141.601562 C 30.496094 137.164062 31.542969 133.195312 33.632812 129.695312 C 35.765625 126.15625 38.667969 123.402344 42.335938 121.441406 C 46.046875 119.433594 50.207031 118.433594 54.816406 118.433594 C 58.699219 118.433594 62.195312 119.113281 65.3125 120.480469 C 68.46875 121.84375 71.113281 123.808594 73.246094 126.367188 L 66.59375 132.511719 C 63.5625 129.011719 59.808594 127.265625 55.328125 127.265625 C 52.554688 127.265625 50.078125 127.882812 47.902344 129.121094 C 45.726562 130.316406 44.019531 132 42.785156 134.175781 C 41.589844 136.351562 40.992188 138.828125 40.992188 141.601562 C 40.992188 144.375 41.589844 146.847656 42.785156 149.023438 C 44.019531 151.199219 45.726562 152.90625 47.902344 154.144531 C 50.078125 155.339844 52.554688 155.9375 55.328125 155.9375 C 59.808594 155.9375 63.5625 154.164062 66.59375 150.625 L 73.246094 156.769531 C 71.113281 159.371094 68.46875 161.355469 65.3125 162.71875 C 62.15625 164.085938 58.636719 164.769531 54.753906 164.769531 Z M 54.753906 164.769531 "/>
</g>
</g>
<g clip-path="url(#clip7)" clip-rule="nonzero">
<g clip-path="url(#clip8)" clip-rule="nonzero">
<path style="fill:none;stroke-width:1;stroke-linecap:butt;stroke-linejoin:miter;stroke:rgb(92.54902%,37.647059%,26.27451%);stroke-opacity:1;stroke-miterlimit:4;" d="M 24 1 L 24 47 " transform="matrix(4,0,0,4,0,0)"/>
</g>
</g>
<g clip-path="url(#clip9)" clip-rule="nonzero">
<g clip-path="url(#clip10)" clip-rule="nonzero">
<path style="fill:none;stroke-width:1;stroke-linecap:butt;stroke-linejoin:miter;stroke:rgb(92.54902%,37.647059%,26.27451%);stroke-opacity:1;stroke-miterlimit:4;" d="M 1 24 L 47 24 " transform="matrix(4,0,0,4,0,0)"/>
</g>
</g>
<g clip-path="url(#clip11)" clip-rule="nonzero">
<g clip-path="url(#clip12)" clip-rule="nonzero">
<path style=" stroke:none;fill-rule:nonzero;fill:rgb(92.54902%,37.647059%,26.27451%);fill-opacity:1;" d="M 69.121094 39.648438 L 47.808594 39.648438 L 47.871094 76 L 37.566406 76 L 37.566406 31.199219 L 69.183594 31.199219 Z M 69.121094 39.648438 "/>
</g>
</g>
<g clip-path="url(#clip13)" clip-rule="nonzero">
<g clip-path="url(#clip14)" clip-rule="nonzero">
<path style=" stroke:none;fill-rule:nonzero;fill:rgb(26.27451%,47.843137%,20.784314%);fill-opacity:1;" d="M 138.945312 76.769531 C 134.292969 76.769531 130.089844 75.765625 126.335938 73.761719 C 122.625 71.753906 119.703125 69.003906 117.566406 65.503906 C 115.476562 61.960938 114.433594 57.996094 114.433594 53.601562 C 114.433594 49.207031 115.476562 45.257812 117.566406 41.761719 C 119.703125 38.21875 122.625 35.445312 126.335938 33.441406 C 130.089844 31.433594 134.292969 30.433594 138.945312 30.433594 C 143.59375 30.433594 147.777344 31.433594 151.488281 33.441406 C 155.199219 35.445312 158.121094 38.21875 160.257812 41.761719 C 162.390625 45.257812 163.457031 49.207031 163.457031 53.601562 C 163.457031 57.996094 162.390625 61.960938 160.257812 65.503906 C 158.121094 69.003906 155.199219 71.753906 151.488281 73.761719 C 147.777344 75.765625 143.59375 76.769531 138.945312 76.769531 Z M 138.945312 67.9375 C 141.589844 67.9375 143.980469 67.339844 146.113281 66.144531 C 148.246094 64.90625 149.910156 63.199219 151.105469 61.023438 C 152.339844 58.847656 152.960938 56.375 152.960938 53.601562 C 152.960938 50.828125 152.339844 48.351562 151.105469 46.175781 C 149.910156 44 148.246094 42.316406 146.113281 41.121094 C 143.980469 39.882812 141.589844 39.265625 138.945312 39.265625 C 136.296875 39.265625 133.910156 39.882812 131.777344 41.121094 C 129.644531 42.316406 127.957031 44 126.71875 46.175781 C 125.523438 48.351562 124.929688 50.828125 124.929688 53.601562 C 124.929688 56.375 125.523438 58.847656 126.71875 61.023438 C 127.957031 63.199219 129.644531 64.90625 131.777344 66.144531 C 133.910156 67.339844 136.296875 67.9375 138.945312 67.9375 Z M 138.945312 67.9375 "/>
</g>
</g>
<g clip-path="url(#clip15)" clip-rule="nonzero">
<g clip-path="url(#clip16)" clip-rule="nonzero">
<path style=" stroke:none;fill-rule:nonzero;fill:rgb(87.45098%,43.921569%,0.784314%);fill-opacity:1;" d="M 155.230469 131.742188 C 151.390625 129.523438 147.273438 128.097656 142.878906 127.457031 L 142.878906 164 L 132.511719 164 L 132.511719 127.457031 C 128.117188 128.097656 123.980469 129.523438 120.097656 131.742188 L 116.574219 124 C 119.648438 122.164062 122.976562 120.777344 126.558594 119.839844 C 130.144531 118.902344 133.835938 118.433594 137.632812 118.433594 C 141.472656 118.433594 145.183594 118.902344 148.769531 119.839844 C 152.394531 120.777344 155.722656 122.164062 158.753906 124 Z M 155.230469 131.742188 "/>
</g>
</g>
</g>
</svg>
